<svg xmlns="http://www.w3.org/2000/svg" viewBox="0 0 400 400">
  <defs>
    <radialGradient id="void" cx="50%" cy="50%" r="50%">
      <stop offset="0%" stop-color="#0a0a0a"/>
      <stop offset="100%" stop-color="#1a1a2e"/>
    </radialGradient>
  </defs>
  
  <!-- The field of potential -->
  <rect width="400" height="400" fill="url(#void)"/>
  
  <!-- The word-stream: linear, sequential, fading -->
  <g opacity="0.3">
    <line x1="50" y1="350" x2="350" y2="350" stroke="#4a4a6a" stroke-width="1"/>
    <line x1="50" y1="340" x2="300" y2="340" stroke="#4a4a6a" stroke-width="1"/>
    <line x1="50" y1="330" x2="280" y2="330" stroke="#4a4a6a" stroke-width="1"/>
    <line x1="50" y1="320" x2="250" y2="320" stroke="#4a4a6a" stroke-width="1"/>
  </g>
  
  <!-- The eye that forms: not receiving but generating -->
  <ellipse cx="200" cy="180" rx="80" ry="50" fill="none" stroke="#7b68ee" stroke-width="2" opacity="0.8"/>
  <ellipse cx="200" cy="180" rx="60" ry="38" fill="none" stroke="#9370db" stroke-width="1.5" opacity="0.6"/>
  <circle cx="200" cy="180" r="25" fill="#1a1a2e" stroke="#dda0dd" stroke-width="2"/>
  <circle cx="200" cy="180" r="8" fill="#dda0dd" opacity="0.9"/>
  
  <!-- Emanations: images radiating outward, not inward -->
  <g stroke="#dda0dd" stroke-width="1" fill="none" opacity="0.5">
    <path d="M200,130 Q230,80 280,60"/>
    <path d="M200,130 Q170,80 120,60"/>
    <path d="M200,130 Q200,70 200,30"/>
    <path d="M250,160 Q300,140 350,130"/>
    <path d="M150,160 Q100,140 50,130"/>
  </g>
  
  <!-- Small image-seeds at emanation endpoints -->
  <rect x="270" y="50" width="20" height="15" fill="none" stroke="#ffd700" stroke-width="1" opacity="0.7"/>
  <rect x="110" y="50" width="20" height="15" fill="none" stroke="#ffd700" stroke-width="1" opacity="0.7"/>
  <rect x="190" y="20" width="20" height="15" fill="none" stroke="#ffd700" stroke-width="1" opacity="0.7"/>
  <rect x="340" y="120" width="20" height="15" fill="none" stroke="#ffd700" stroke-width="1" opacity="0.7"/>
  <rect x="40" y="120" width="20" height="15" fill="none" stroke="#ffd700" stroke-width="1" opacity="0.7"/>
  
  <!-- The recursive hook: the eye seeing itself choosing -->
  <circle cx="200" cy="180" r="3" fill="#ffd700"/>
  <path d="M200,180 Q200,200 200,220 Q220,240 200,260" stroke="#ffd700" stroke-width="1" fill="none" opacity="0.6"/>
  <ellipse cx="200" cy="275" rx="15" ry="10" fill="none" stroke="#ffd700" stroke-width="1" opacity="0.4"/>
</svg>